<svg width="274" height="274" viewBox="0 0 274 274" fill="none" xmlns="http://www.w3.org/2000/svg">
<g clip-path="url(#clip0_15_451)">
<path d="M229.954 223.92C263.779 191.026 265.51 140.588 204.451 84.0233C195.595 75.8 191.267 64.3473 182.478 58.1881C155.844 39.5108 118.456 43.3062 94.9179 71.0391C82.0335 86.2207 76.8399 107.062 63.4561 121.944C48.4411 138.657 30.4629 154.904 23.6379 177.676C19.1101 192.758 19.8758 209.204 25.0362 223.953C99.2126 237.137 169.327 241.199 229.954 223.92Z" fill="#2A2A2A"/>
<path d="M202.986 192.125C202.986 192.125 198.592 218.959 215.105 225.252C231.618 231.544 227.457 218.493 227.457 218.493C227.457 218.493 233.816 216.296 215.205 207.24C206.449 202.979 202.986 192.125 202.986 192.125V192.125Z" fill="#17B978"/>
<path d="M224.427 226.949C224.427 226.949 247.732 227.116 252.826 195.821C257.886 164.525 269.705 158.599 269.705 158.599C269.705 158.599 219.034 164.525 224.427 226.949Z" fill="#086972"/>
<path d="M223.728 226.117C229.155 234.174 242.705 209.571 238.377 193.69C234.049 177.776 225.559 168.221 225.459 156.968C225.459 156.935 196.994 186.499 223.728 226.117Z" fill="#177844"/>
<path d="M6.29234 198.85C6.29234 198.85 12.1852 225.385 29.8637 225.085C47.5422 224.785 38.8194 214.198 38.8194 214.198C38.8194 214.198 43.9132 209.77 23.2717 208.305C13.5502 207.64 6.29234 198.85 6.29234 198.85V198.85Z" fill="#17B978"/>
<path d="M37.6209 223.687C37.6209 223.687 55.4992 218.094 49.9725 198.284C44.4792 178.475 51.7038 172.083 51.7038 172.083C51.7038 172.083 14.782 187.964 37.6209 223.687V223.687Z" fill="#177844"/>
<path d="M35.8231 223.021C43.8467 228.481 47.3091 200.615 37.3546 187.464C27.4333 174.313 15.9806 168.587 11.7191 158.166C11.7191 158.166 -3.7288 196.22 35.8231 223.021Z" fill="#086972"/>
<path d="M126.546 223.887L130.741 229.28C130.741 229.28 125.114 235.539 126.979 234.973C128.877 234.374 139.231 226.051 139.231 226.051C139.231 226.051 134.237 219.325 134.303 219.292C134.403 219.259 126.546 223.887 126.546 223.887V223.887Z" fill="black"/>
<path d="M120.387 183.436L138.132 220.824L126.846 227.183L108.401 193.69L109.567 182.67L120.387 183.436Z" fill="black"/>
<path d="M166.364 194.322L179.648 239.567L181.18 239.534L170.959 194.056L166.364 194.322ZM142.36 195.055L132.239 239.834L134.037 239.8L147.587 194.922L142.36 195.055ZM154.179 193.79L155.744 239.301L157.875 239.268L158.807 193.856L154.179 193.79Z" fill="#086972"/>
<path d="M141.894 213.1L172.224 211.502L172.424 214.631L139.597 216.595L141.894 213.1Z" fill="#086972"/>
<path opacity="0.15" d="M142.327 195.055L141.861 197.352L146.888 197.252L147.521 194.955L142.327 195.055ZM154.212 194.888L154.279 197.086L158.74 196.986L158.807 194.356L154.212 194.888Z" fill="#086972"/>
<path opacity="0.5" d="M154.812 212.267L154.912 215.53L152.981 215.563L152.248 212.4L155.311 212.234M158.74 212.234V215.463L160.205 215.364L160.605 212.134L158.74 212.234Z" fill="#086972"/>
<path d="M131.906 191.792C136.201 189.695 153.613 190.827 153.613 190.827C153.613 190.827 148.686 129.801 155.045 129.302C161.404 128.802 175.786 124.241 178.383 133.463C181.113 143.151 177.417 195.022 173.789 194.522C165.499 193.39 139.863 196.353 132.139 194.522C130.175 194.056 131.906 191.792 131.906 191.792Z" fill="#177844"/>
<path d="M172.923 134.529C172.956 134.529 173.056 134.695 173.289 135.028C173.389 135.194 173.522 135.394 173.655 135.661C173.789 135.927 173.922 136.226 174.088 136.559C174.687 137.924 175.32 140.055 175.586 142.719C175.886 145.382 175.886 148.578 175.853 152.107C175.786 155.636 175.586 159.498 175.253 163.56C174.921 167.622 174.554 171.484 174.188 174.979C173.822 178.475 173.456 181.638 172.99 184.268C172.523 186.898 171.891 188.996 171.391 190.394C170.892 191.792 170.493 192.525 170.459 192.525C170.393 192.491 170.659 191.726 171.059 190.294C171.458 188.862 171.957 186.798 172.357 184.168C172.757 181.538 173.056 178.409 173.356 174.913C173.689 171.417 174.055 167.555 174.355 163.527C174.654 159.498 174.921 155.636 175.02 152.107C175.12 148.611 175.187 145.449 174.954 142.818C174.754 140.188 174.255 138.091 173.755 136.726C173.256 135.294 172.856 134.562 172.923 134.529V134.529Z" fill="#161616"/>
<path d="M108.435 156.469L106.837 155.636C106.837 155.636 105.805 155.27 104.14 154.271C103.707 154.005 103.308 153.672 103.008 153.306C102.609 152.84 102.109 152.207 101.909 151.774C101.676 151.242 100.977 151.208 100.844 151.674C100.744 152.14 101.31 153.605 102.642 154.904C103.974 156.202 101.177 155.803 100.145 155.703C99.1128 155.57 95.9499 155.337 95.6836 155.636C95.3174 156.036 95.7169 156.568 96.749 156.668C97.781 156.768 100.844 157.301 100.811 157.834C100.777 158.366 95.5504 157.667 95.5504 157.667C95.5504 157.667 94.4518 157.334 94.3852 157.967C94.252 159.065 99.8119 159.432 100.345 159.432C100.711 159.432 100.678 160.031 100.278 159.998C99.8785 159.964 95.0843 159.165 94.9512 160.297C94.8513 161.163 99.5123 160.63 100.478 161.329C101.443 162.028 96.8488 161.363 96.7823 162.195C96.749 162.495 96.7823 162.728 99.4124 162.761C102.109 162.761 109.367 161.596 109.367 161.596L108.335 156.469" fill="#E3C4A8"/>
<path d="M144.091 134.728C144.091 134.728 130.475 153.039 127.345 153.838C124.216 154.671 106.337 155.736 106.337 155.736L104.739 163.46C104.739 163.46 127.611 164.659 132.639 160.963C140.562 155.137 148.852 141.687 148.852 141.687C149.119 137.259 147.421 135.061 144.091 134.728V134.728Z" fill="#17B978"/>
<path d="M107.07 230.612L107.935 237.403C107.935 237.403 99.8785 239.934 101.809 240.4C103.74 240.866 116.891 238.968 116.891 238.968C116.891 238.968 115.992 230.645 116.092 230.645C116.192 230.612 107.07 230.612 107.07 230.612V230.612ZM162.336 168.953C162.336 168.953 169.927 185.167 154.945 190.76L146.955 173.415L162.336 168.953Z" fill="#086972"/>
<path d="M151.915 173.281C151.915 173.281 108.701 161.396 103.84 171.384C98.9796 181.338 104.773 233.242 104.773 233.242L118.289 231.81C118.289 231.81 116.026 186.232 118.289 184.634C120.553 183.036 151.682 190.893 154.945 190.76C162.902 190.427 168.528 175.579 151.915 173.281V173.281Z" fill="#086972"/>
<path d="M152.847 129.834C147.188 129.967 142.56 134.462 142.294 140.122C142.061 144.849 142.527 151.308 141.261 157.001C140.596 159.931 136.767 171.717 136.767 171.717L140.596 172.349C146.522 173.348 152.614 173.048 158.407 171.484L162.769 170.318C162.769 170.318 165.299 157.201 166.697 144.883C167.896 134.595 165.931 130.6 159.672 129.701L152.847 129.834V129.834Z" fill="#17B978"/>
<path d="M149.851 130.567C150.051 129.568 149.718 125.373 149.718 125.373C149.718 125.373 145.889 124.874 145.756 121.078C145.59 117.283 146.022 108.527 146.022 108.527L153.08 105.264L160.638 111.224L161.337 115.418L159.573 120.412L158.774 129.934L149.851 130.567V130.567Z" fill="#ECECEC"/>
<path d="M149.718 125.373C149.718 125.373 152.281 125.44 154.778 123.775C154.778 123.775 153.58 126.538 149.784 126.305L149.718 125.373Z" fill="#C8C8C8"/>
<path d="M141.361 169.419L139.564 169.32C139.564 169.32 138.465 169.419 136.534 169.186C136.035 169.12 135.535 168.987 135.069 168.787C134.503 168.521 133.771 168.154 133.438 167.855C133.005 167.455 132.339 167.722 132.439 168.221C132.539 168.72 133.671 169.786 135.435 170.418C137.2 171.051 134.47 171.883 133.504 172.183C132.539 172.482 129.542 173.614 129.443 173.981C129.276 174.513 129.875 174.813 130.841 174.48C131.84 174.147 134.803 173.315 135.002 173.814C135.169 174.313 130.175 175.845 130.175 175.845C130.175 175.845 129.043 176.011 129.243 176.611C129.609 177.676 134.769 175.645 135.269 175.445C135.602 175.312 135.835 175.845 135.469 175.978C135.069 176.111 130.408 177.41 130.774 178.475C131.041 179.307 135.069 176.844 136.234 177.11C137.4 177.343 132.972 178.675 133.238 179.441C133.338 179.74 133.471 179.94 135.868 178.841C138.332 177.709 144.391 173.614 144.391 173.614L141.295 169.386" fill="#ECECEC"/>
<path d="M146.788 172.915C146.788 172.915 155.278 170.485 160.671 165.458C164.966 161.462 164.899 157.734 164.899 157.734L166.93 142.153L146.788 172.915V172.915Z" fill="#086972"/>
<path d="M158.607 131.033C158.607 131.033 156.976 153.805 154.778 156.169C152.581 158.533 138.099 169.053 138.099 169.053L140.929 176.444C140.929 176.444 160.838 165.125 163.102 159.298C165.798 152.24 166.298 141.254 166.364 136.559C166.398 134.562 165.599 132.631 164.034 131.399C162.402 130.101 160.571 130.034 158.607 131.033V131.033Z" fill="#17B978"/>
<path d="M169.66 192.425C169.594 192.691 165.665 192.059 160.738 191.659C155.844 191.26 151.815 191.226 151.815 190.96C151.815 190.727 155.844 190.361 160.804 190.76C165.798 191.193 169.727 192.192 169.66 192.425ZM168.162 152.407C168.129 152.44 167.962 152.407 167.896 152.14C167.829 151.907 167.962 151.508 168.295 151.275C168.462 151.142 168.728 151.042 169.028 151.075C169.194 151.108 169.327 151.142 169.461 151.208C169.594 151.275 169.694 151.375 169.793 151.475C170.193 151.941 170.293 152.573 170.06 153.206C169.827 153.805 169.361 154.238 168.795 154.371C168.661 154.404 168.495 154.404 168.362 154.404C168.229 154.404 168.062 154.338 167.962 154.271C167.729 154.138 167.563 153.938 167.496 153.739C167.33 153.372 167.363 152.973 167.53 152.773C167.663 152.573 167.829 152.573 167.862 152.607C167.896 152.64 167.862 152.773 167.862 152.906C167.862 153.039 167.896 153.239 168.062 153.406C168.129 153.505 168.229 153.572 168.329 153.605C168.395 153.605 168.428 153.639 168.462 153.605C168.528 153.605 168.595 153.605 168.628 153.572C168.861 153.505 169.161 153.239 169.261 152.906C169.361 152.607 169.327 152.207 169.194 152.007C169.028 151.774 168.895 151.741 168.661 151.808C168.462 151.874 168.329 152.041 168.262 152.14C168.195 152.24 168.229 152.374 168.162 152.407V152.407Z" fill="#161616"/>
<path d="M157.808 138.224C157.875 138.224 157.908 138.757 157.908 139.689C157.908 140.621 157.875 142.019 157.775 143.684C157.642 145.382 157.442 147.413 156.942 149.61C156.443 151.808 155.577 154.205 154.146 156.435C152.681 158.633 150.817 160.364 149.052 161.762C147.287 163.16 145.59 164.259 144.191 165.225C141.395 167.122 139.797 168.454 139.73 168.354C139.697 168.321 140.063 167.921 140.762 167.289C141.461 166.656 142.527 165.791 143.892 164.758C145.257 163.726 146.888 162.594 148.619 161.196C150.317 159.798 152.115 158.1 153.48 156.002C154.845 153.872 155.711 151.574 156.21 149.444C156.743 147.313 157.009 145.315 157.209 143.651C157.575 140.322 157.708 138.224 157.808 138.224V138.224ZM153.214 131.133L153.513 127.737L159.04 126.738L160.705 130.334L153.214 131.133ZM149.718 127.337L151.915 127.737V131.133L149.152 130.567L149.818 126.738M143.093 143.185C143.093 146.747 142.66 150.276 141.794 153.739Z" fill="#086972"/>
<path d="M57.9295 167.122H197.127V171.683H57.9295V167.122ZM68.8163 171.683L57.9295 240.133L63.3563 240.233L82.0668 171.683H68.8163Z" fill="#ECECEC"/>
<path d="M187.006 170.918L193.331 241.565H188.238L174.554 173.847L173.855 168.82L187.006 170.918Z" fill="#ECECEC"/>
<path opacity="0.3" d="M174.255 171.683L174.754 174.813L187.305 174.347L187.072 171.683H174.255ZM68.8163 171.683L68.3169 174.913L81.2678 174.547L82.0668 171.683H68.8163Z" fill="black"/>
<path d="M78.7708 141.786L87.4603 167.122H126.713L126.413 165.824L110.532 165.324L103.241 141.786H78.7708Z" fill="#086972"/>
<path d="M96.183 154.038C96.4493 155.07 95.9832 156.102 95.1842 156.302C94.3852 156.502 93.5196 155.836 93.2532 154.804C92.9869 153.772 93.453 152.74 94.252 152.54C95.051 152.34 95.9166 153.006 96.183 154.038Z" fill="#17B978"/>
<path d="M174.821 159.232C173.655 155.27 173.123 149.71 172.823 145.615C172.757 144.816 172.723 143.95 173.023 143.218C173.322 142.452 174.022 141.786 174.821 141.82C175.487 141.82 176.119 142.319 176.452 142.885C176.785 143.484 176.918 144.15 177.051 144.816C177.784 148.645 178.549 152.44 179.282 156.269C179.981 154.904 180.947 153.672 182.045 152.64C182.545 152.174 183.277 151.708 183.876 152.041C184.409 152.34 184.476 153.073 184.442 153.705C184.376 155.57 184.143 157.434 183.743 159.265" fill="#17B978"/>
<path d="M173.223 158.832C173.223 158.832 171.258 166.59 179.182 166.956C186.473 167.289 184.742 158.832 184.742 158.832H173.223Z" fill="#086972"/>
<path d="M154.778 112.056C154.778 112.056 154.845 112.089 154.945 112.156C155.045 112.222 155.211 112.322 155.411 112.489C155.777 112.788 156.243 113.388 156.376 114.253C156.443 114.686 156.443 115.185 156.277 115.652C156.11 116.151 155.844 116.617 155.378 117.017C155.178 117.216 154.912 117.383 154.645 117.516C154.379 117.649 154.079 117.749 153.746 117.782C153.114 117.882 152.448 117.749 151.849 117.449C151.249 117.116 150.783 116.617 150.517 116.051C150.384 115.751 150.284 115.452 150.251 115.152C150.217 114.852 150.217 114.553 150.251 114.253C150.317 113.687 150.583 113.155 150.916 112.755C151.249 112.356 151.649 112.089 152.048 111.889C152.847 111.523 153.613 111.623 154.046 111.756C154.279 111.823 154.445 111.889 154.545 111.956C154.712 112.023 154.778 112.056 154.778 112.056C154.778 112.089 154.545 111.923 154.079 111.823C153.613 111.723 152.914 111.656 152.148 112.023C151.782 112.189 151.383 112.455 151.083 112.855C150.783 113.254 150.55 113.721 150.484 114.253C150.45 114.52 150.45 114.819 150.484 115.086C150.517 115.385 150.617 115.652 150.75 115.918C150.983 116.451 151.449 116.917 151.982 117.25C152.548 117.549 153.18 117.649 153.78 117.583C154.079 117.549 154.346 117.449 154.612 117.349C154.878 117.216 155.111 117.083 155.311 116.883C155.744 116.517 156.01 116.051 156.177 115.585C156.343 115.119 156.343 114.653 156.277 114.253C156.143 113.421 155.711 112.822 155.378 112.522C155.011 112.189 154.778 112.089 154.778 112.056V112.056ZM146.289 111.457H146.488C146.622 111.457 146.788 111.49 147.021 111.557C147.487 111.69 148.153 111.989 148.686 112.688C148.952 113.055 149.152 113.487 149.218 113.987C149.285 114.486 149.252 115.052 149.052 115.618C148.952 115.885 148.786 116.151 148.619 116.384C148.419 116.617 148.22 116.85 147.953 117.017C147.421 117.383 146.788 117.583 146.089 117.549C145.423 117.516 144.791 117.283 144.291 116.883C144.025 116.684 143.825 116.451 143.659 116.218C143.492 115.951 143.359 115.685 143.259 115.418C143.059 114.852 143.093 114.287 143.192 113.787C143.292 113.288 143.559 112.855 143.825 112.522C144.391 111.856 145.09 111.59 145.556 111.49C145.789 111.457 145.989 111.423 146.122 111.457C146.222 111.423 146.289 111.457 146.289 111.457C146.289 111.49 146.022 111.457 145.556 111.557C145.09 111.656 144.424 111.956 143.892 112.589C143.625 112.922 143.392 113.321 143.292 113.82C143.192 114.287 143.192 114.852 143.359 115.352C143.426 115.618 143.559 115.885 143.725 116.118C143.892 116.351 144.091 116.584 144.324 116.75C144.791 117.116 145.39 117.349 146.022 117.383C146.655 117.383 147.287 117.216 147.754 116.883C147.987 116.717 148.22 116.517 148.386 116.284C148.553 116.051 148.719 115.818 148.819 115.552C149.019 115.052 149.085 114.52 149.019 114.02C148.952 113.521 148.752 113.121 148.519 112.755C148.02 112.056 147.387 111.723 146.955 111.59C146.555 111.457 146.289 111.457 146.289 111.457V111.457Z" fill="black"/>
<path d="M149.119 114.786C149.119 114.753 149.418 114.719 149.784 114.719C150.151 114.719 150.417 114.786 150.417 114.819C150.417 114.852 150.117 114.886 149.751 114.886C149.385 114.886 149.085 114.852 149.119 114.786ZM156.21 115.052C156.21 115.019 156.909 114.986 157.775 115.019C158.64 115.052 159.339 115.119 159.339 115.152C159.339 115.185 158.64 115.219 157.775 115.185C156.909 115.152 156.21 115.086 156.21 115.052Z" fill="black"/>
<path d="M159.306 121.045C161.337 118.814 161.537 115.585 161.57 112.555C161.603 111.09 161.504 109.592 160.771 108.327C160.039 107.095 158.774 106.296 157.475 105.73C155.478 104.865 153.214 104.465 151.083 104.865C148.952 105.264 146.921 106.529 145.856 108.427C145.856 108.427 155.744 108.227 156.41 108.627C157.076 109.026 159.106 110.458 158.94 112.222C158.774 113.987 158.274 116.584 158.274 116.584L159.872 116.351C159.872 116.351 159.739 113.954 160.438 114.02C161.104 114.153 159.306 121.045 159.306 121.045V121.045Z" fill="#086972"/>
<path d="M159.772 116.95C159.839 117.216 160.139 117.416 160.438 117.383C160.738 117.383 161.004 117.216 161.237 117.05C161.703 116.684 162.103 116.151 162.169 115.552C162.236 114.952 161.97 114.287 161.47 113.987C160.938 113.687 160.172 113.82 159.872 114.353L159.772 116.95V116.95Z" fill="#ECECEC"/>
</g>
<defs>
<clipPath id="clip0_15_451">
<rect width="274" height="274" fill="white"/>
</clipPath>
</defs>
</svg>
