<svg width="258" height="258" viewBox="0 0 258 258" fill="none" xmlns="http://www.w3.org/2000/svg">
<g clip-path="url(#clip0_16_731)">
<path d="M88.9993 23.5352C115.656 5.96797 153.117 9.54876 176.683 35.6242C189.567 49.8861 194.801 69.5039 208.175 83.4598C223.233 99.1601 241.228 114.432 248.053 135.856C255.307 158.626 248.941 184.732 232.72 202.146C212.98 223.325 183.967 216.959 156.544 216.622C44.2548 215.214 -39.205 140.263 66.9943 47.8662C75.8698 40.0925 80.1851 29.3196 88.9993 23.5352V23.5352Z" fill="#2A2A2A"/>
<path d="M188.527 89.0605H152.719C150.699 89.0605 149.046 87.4078 149.046 85.3879V62.1281C149.046 60.1082 150.699 58.4555 152.719 58.4555H188.527C190.547 58.4555 192.199 60.1082 192.199 62.1281V85.3879C192.199 87.4078 190.547 89.0605 188.527 89.0605Z" fill="white"/>
<path d="M147.088 62.7708V85.7552C147.088 88.9381 149.658 91.5089 152.841 91.5089H187.302C190.485 91.5089 193.056 88.9381 193.056 85.7552V62.7708C193.056 59.5879 190.485 57.0171 187.302 57.0171H152.841C149.658 57.0171 147.088 59.5879 147.088 62.7708V62.7708ZM150.087 86.3366C150.056 86.153 149.964 85.9694 149.964 85.7858V62.8014C149.964 62.4954 150.056 62.2199 150.148 61.9751L162.298 72.4114L150.087 86.3366V86.3366ZM187.302 59.8939C187.486 59.8939 187.67 59.9552 187.853 60.0164L170.072 75.2576L152.29 60.0164C152.474 59.9858 152.627 59.8939 152.841 59.8939H187.302V59.8939ZM177.846 72.3502L189.996 61.9139C190.088 62.1893 190.179 62.4648 190.179 62.7402V85.7245C190.179 85.9388 190.118 86.0918 190.057 86.2754L177.846 72.3502V72.3502ZM152.841 88.632C152.535 88.632 152.29 88.5402 152.015 88.479L164.471 74.2477L169.123 78.2569C169.399 78.5018 169.735 78.5936 170.072 78.5936C170.409 78.5936 170.745 78.4712 171.021 78.2569L175.673 74.2477L188.129 88.479C187.853 88.5708 187.609 88.632 187.302 88.632H152.841V88.632Z" fill="#177844"/>
<path d="M205.972 154.861H179.039C177.019 154.861 175.367 153.209 175.367 151.189V134.233C175.367 132.214 177.019 130.561 179.039 130.561H205.972C207.991 130.561 209.644 132.214 209.644 134.233V151.189C209.644 153.209 207.991 154.861 205.972 154.861Z" fill="white"/>
<path d="M174.387 133.836V152.015C174.387 154.525 176.407 156.575 178.947 156.575H206.216C208.726 156.575 210.777 154.555 210.777 152.015V133.836C210.777 131.326 208.757 129.275 206.216 129.275H178.947C176.438 129.306 174.387 131.326 174.387 133.836ZM176.744 152.474C176.713 152.321 176.652 152.199 176.652 152.015V133.836C176.652 133.591 176.713 133.377 176.774 133.162L186.384 141.395L176.744 152.474ZM206.216 131.571C206.369 131.571 206.492 131.632 206.645 131.663L192.597 143.721L178.549 131.663C178.703 131.632 178.825 131.571 178.978 131.571H206.216ZM198.718 141.426L208.328 133.193C208.389 133.407 208.451 133.621 208.451 133.866V152.046C208.451 152.199 208.389 152.352 208.359 152.505L198.718 141.426ZM178.947 154.28C178.703 154.28 178.519 154.219 178.305 154.157L188.159 142.895L191.863 146.047C192.077 146.231 192.352 146.322 192.597 146.322C192.873 146.322 193.117 146.231 193.332 146.047L197.035 142.895L206.89 154.157C206.675 154.219 206.461 154.28 206.247 154.28H178.947Z" fill="#17B978"/>
<path d="M219.254 58.884V71.1872C219.254 72.9011 220.631 74.2783 222.345 74.2783H240.8C242.514 74.2783 243.891 72.9011 243.891 71.1872V58.884C243.891 57.1701 242.514 55.7929 240.8 55.7929H222.345C220.631 55.7929 219.254 57.1701 219.254 58.884V58.884ZM220.876 71.4932C220.846 71.4014 220.815 71.3096 220.815 71.1872V58.884C220.815 58.731 220.846 58.5779 220.907 58.4249L227.426 63.995L220.876 71.4932V71.4932ZM240.8 57.3537C240.892 57.3537 240.984 57.3843 241.075 57.4149L231.557 65.5865L222.039 57.4149C222.131 57.3843 222.223 57.3537 222.315 57.3537H240.8V57.3537ZM235.75 64.0256L242.269 58.4555C242.3 58.6085 242.361 58.731 242.361 58.9146V71.2178C242.361 71.3096 242.33 71.432 242.3 71.5238L235.75 64.0256V64.0256ZM222.345 72.7174C222.192 72.7174 222.039 72.6868 221.917 72.6256L228.589 65.005L231.098 67.1473C231.251 67.2697 231.435 67.331 231.588 67.331C231.772 67.331 231.955 67.2697 232.078 67.1473L234.587 65.005L241.259 72.6256C241.106 72.6562 240.984 72.7174 240.831 72.7174H222.345V72.7174Z" fill="#2A2A2A"/>
<path d="M224.335 122.42H213.317C211.297 122.42 209.644 120.767 209.644 118.747V112.198C209.644 110.178 211.297 108.525 213.317 108.525H224.335C226.354 108.525 228.007 110.178 228.007 112.198V118.747C228.007 120.767 226.354 122.42 224.335 122.42Z" fill="white"/>
<path d="M209.185 110.668V120.216C209.185 121.532 210.256 122.604 211.572 122.604H225.895C227.211 122.604 228.283 121.532 228.283 120.216V110.668C228.283 109.352 227.211 108.28 225.895 108.28H211.572C210.256 108.311 209.185 109.352 209.185 110.668ZM210.44 120.461C210.409 120.369 210.379 120.308 210.379 120.216V110.668C210.379 110.545 210.409 110.423 210.44 110.331L215.49 114.646L210.44 120.461ZM225.895 109.505C225.987 109.505 226.048 109.535 226.11 109.535L218.734 115.87L211.358 109.535C211.419 109.535 211.511 109.505 211.572 109.505H225.895ZM221.947 114.646L226.997 110.331C227.028 110.453 227.058 110.545 227.058 110.668V120.216C227.058 120.308 227.028 120.369 226.997 120.461L221.947 114.646ZM211.572 121.41C211.45 121.41 211.327 121.379 211.236 121.349L216.408 115.442L218.336 117.095C218.458 117.186 218.581 117.248 218.734 117.248C218.887 117.248 219.009 117.186 219.132 117.095L221.06 115.442L226.232 121.349C226.11 121.379 226.018 121.41 225.895 121.41H211.572V121.41Z" fill="#177844"/>
<path d="M187.425 32.0128V41.9288C187.425 43.3061 188.527 44.4078 189.904 44.4078H204.747C206.125 44.4078 207.226 43.3061 207.226 41.9288V32.0128C207.226 30.6356 206.125 29.5338 204.747 29.5338H189.904C188.557 29.5338 187.425 30.6356 187.425 32.0128ZM188.741 42.1737C188.71 42.0819 188.68 42.0206 188.68 41.9288V32.0128C188.68 31.8904 188.71 31.768 188.741 31.6456L193.974 36.1445L188.741 42.1737ZM204.778 30.7886C204.87 30.7886 204.931 30.8192 205.023 30.8498L197.372 37.4299L189.72 30.8498C189.812 30.8192 189.873 30.7886 189.965 30.7886H204.778V30.7886ZM200.707 36.1445L205.941 31.6456C205.972 31.768 206.002 31.8904 206.002 32.0128V41.9288C206.002 42.0206 205.972 42.0819 205.941 42.1737L200.707 36.1445ZM189.904 43.153C189.782 43.153 189.659 43.1224 189.537 43.0918L194.893 36.9708L196.912 38.6847C197.035 38.7765 197.157 38.8377 197.31 38.8377C197.463 38.8377 197.586 38.7765 197.708 38.6847L199.728 36.9708L205.084 43.0918C204.962 43.1224 204.87 43.153 204.717 43.153H189.904V43.153Z" fill="#17B978"/>
<path d="M162.574 94.3552C163.081 94.3552 163.492 93.9441 163.492 93.437C163.492 92.9299 163.081 92.5189 162.574 92.5189C162.067 92.5189 161.656 92.9299 161.656 93.437C161.656 93.9441 162.067 94.3552 162.574 94.3552Z" fill="#6B6B6B"/>
<path d="M159.666 95.916C160.173 95.916 160.584 95.5049 160.584 94.9979C160.584 94.4908 160.173 94.0797 159.666 94.0797C159.159 94.0797 158.748 94.4908 158.748 94.9979C158.748 95.5049 159.159 95.916 159.666 95.916Z" fill="#6B6B6B"/>
<path d="M156.82 97.5687C157.327 97.5687 157.738 97.1576 157.738 96.6505C157.738 96.1434 157.327 95.7324 156.82 95.7324C156.313 95.7324 155.902 96.1434 155.902 96.6505C155.902 97.1576 156.313 97.5687 156.82 97.5687Z" fill="#6B6B6B"/>
<path d="M154.525 99.9253C155.032 99.9253 155.443 99.5142 155.443 99.0071C155.443 98.5 155.032 98.089 154.525 98.089C154.017 98.089 153.606 98.5 153.606 99.0071C153.606 99.5142 154.017 99.9253 154.525 99.9253Z" fill="#6B6B6B"/>
<path d="M152.566 102.557C153.073 102.557 153.484 102.146 153.484 101.639C153.484 101.132 153.073 100.721 152.566 100.721C152.059 100.721 151.648 101.132 151.648 101.639C151.648 102.146 152.059 102.557 152.566 102.557Z" fill="#6B6B6B"/>
<path d="M151.066 105.495C151.573 105.495 151.984 105.084 151.984 104.577C151.984 104.07 151.573 103.659 151.066 103.659C150.559 103.659 150.148 104.07 150.148 104.577C150.148 105.084 150.559 105.495 151.066 105.495Z" fill="#6B6B6B"/>
<path d="M150.117 108.648C150.625 108.648 151.036 108.237 151.036 107.73C151.036 107.222 150.625 106.811 150.117 106.811C149.61 106.811 149.199 107.222 149.199 107.73C149.199 108.237 149.61 108.648 150.117 108.648Z" fill="#6B6B6B"/>
<path d="M167.623 121.655C168.131 121.655 168.542 121.244 168.542 120.737C168.542 120.23 168.131 119.819 167.623 119.819C167.116 119.819 166.705 120.23 166.705 120.737C166.705 121.244 167.116 121.655 167.623 121.655Z" fill="#6B6B6B"/>
<path d="M164.318 121.655C164.825 121.655 165.236 121.244 165.236 120.737C165.236 120.23 164.825 119.819 164.318 119.819C163.811 119.819 163.4 120.23 163.4 120.737C163.4 121.244 163.811 121.655 164.318 121.655Z" fill="#6B6B6B"/>
<path d="M161.013 121.655C161.52 121.655 161.931 121.244 161.931 120.737C161.931 120.23 161.52 119.819 161.013 119.819C160.506 119.819 160.095 120.23 160.095 120.737C160.095 121.244 160.506 121.655 161.013 121.655Z" fill="#6B6B6B"/>
<path d="M157.707 121.655C158.215 121.655 158.626 121.244 158.626 120.737C158.626 120.23 158.215 119.819 157.707 119.819C157.2 119.819 156.789 120.23 156.789 120.737C156.789 121.244 157.2 121.655 157.707 121.655Z" fill="#6B6B6B"/>
<path d="M154.402 121.655C154.909 121.655 155.32 121.244 155.32 120.737C155.32 120.23 154.909 119.819 154.402 119.819C153.895 119.819 153.484 120.23 153.484 120.737C153.484 121.244 153.895 121.655 154.402 121.655Z" fill="#6B6B6B"/>
<path d="M205.88 116.33C206.387 116.33 206.798 115.918 206.798 115.411C206.798 114.904 206.387 114.493 205.88 114.493C205.373 114.493 204.962 114.904 204.962 115.411C204.962 115.918 205.373 116.33 205.88 116.33Z" fill="#6B6B6B"/>
<path d="M202.574 116.238C203.081 116.238 203.493 115.827 203.493 115.32C203.493 114.812 203.081 114.401 202.574 114.401C202.067 114.401 201.656 114.812 201.656 115.32C201.656 115.827 202.067 116.238 202.574 116.238Z" fill="#6B6B6B"/>
<path d="M199.269 116.146C199.776 116.146 200.187 115.735 200.187 115.228C200.187 114.721 199.776 114.31 199.269 114.31C198.762 114.31 198.351 114.721 198.351 115.228C198.351 115.735 198.762 116.146 199.269 116.146Z" fill="#6B6B6B"/>
<path d="M196.056 116.942C196.563 116.942 196.974 116.531 196.974 116.023C196.974 115.516 196.563 115.105 196.056 115.105C195.548 115.105 195.137 115.516 195.137 116.023C195.137 116.531 195.548 116.942 196.056 116.942Z" fill="#6B6B6B"/>
<path d="M192.873 117.829C193.38 117.829 193.791 117.418 193.791 116.911C193.791 116.404 193.38 115.993 192.873 115.993C192.366 115.993 191.954 116.404 191.954 116.911C191.954 117.418 192.366 117.829 192.873 117.829Z" fill="#6B6B6B"/>
<path d="M190.149 119.665C190.656 119.665 191.067 119.254 191.067 118.747C191.067 118.24 190.656 117.829 190.149 117.829C189.642 117.829 189.231 118.24 189.231 118.747C189.231 119.254 189.642 119.665 190.149 119.665Z" fill="#6B6B6B"/>
<path d="M187.67 121.808C188.177 121.808 188.588 121.397 188.588 120.89C188.588 120.383 188.177 119.972 187.67 119.972C187.163 119.972 186.752 120.383 186.752 120.89C186.752 121.397 187.163 121.808 187.67 121.808Z" fill="#6B6B6B"/>
<path d="M185.68 124.44C186.187 124.44 186.599 124.029 186.599 123.522C186.599 123.015 186.187 122.604 185.68 122.604C185.173 122.604 184.762 123.015 184.762 123.522C184.762 124.029 185.173 124.44 185.68 124.44Z" fill="#6B6B6B"/>
<path d="M184.273 127.409C184.78 127.409 185.191 126.997 185.191 126.49C185.191 125.983 184.78 125.572 184.273 125.572C183.766 125.572 183.354 125.983 183.354 126.49C183.354 126.997 183.766 127.409 184.273 127.409Z" fill="#6B6B6B"/>
<path d="M221.274 78.0733C221.781 78.0733 222.192 77.6622 222.192 77.1552C222.192 76.6481 221.781 76.237 221.274 76.237C220.767 76.237 220.356 76.6481 220.356 77.1552C220.356 77.6622 220.767 78.0733 221.274 78.0733Z" fill="#6B6B6B"/>
<path d="M218.55 79.9708C219.057 79.9708 219.468 79.5598 219.468 79.0527C219.468 78.5456 219.057 78.1345 218.55 78.1345C218.043 78.1345 217.632 78.5456 217.632 79.0527C217.632 79.5598 218.043 79.9708 218.55 79.9708Z" fill="#6B6B6B"/>
<path d="M215.52 81.2256C216.027 81.2256 216.438 80.8145 216.438 80.3075C216.438 79.8004 216.027 79.3893 215.52 79.3893C215.013 79.3893 214.602 79.8004 214.602 80.3075C214.602 80.8145 215.013 81.2256 215.52 81.2256Z" fill="#6B6B6B"/>
<path d="M212.429 82.4192C212.936 82.4192 213.347 82.0081 213.347 81.5011C213.347 80.994 212.936 80.5829 212.429 80.5829C211.922 80.5829 211.511 80.994 211.511 81.5011C211.511 82.0081 211.922 82.4192 212.429 82.4192Z" fill="#6B6B6B"/>
<path d="M209.216 83.1231C209.723 83.1231 210.134 82.7121 210.134 82.205C210.134 81.6979 209.723 81.2868 209.216 81.2868C208.709 81.2868 208.297 81.6979 208.297 82.205C208.297 82.7121 208.709 83.1231 209.216 83.1231Z" fill="#6B6B6B"/>
<path d="M205.972 83.7658C206.479 83.7658 206.89 83.3548 206.89 82.8477C206.89 82.3406 206.479 81.9295 205.972 81.9295C205.464 81.9295 205.053 82.3406 205.053 82.8477C205.053 83.3548 205.464 83.7658 205.972 83.7658Z" fill="#6B6B6B"/>
<path d="M202.666 84.0413C203.173 84.0413 203.584 83.6302 203.584 83.1231C203.584 82.6161 203.173 82.205 202.666 82.205C202.159 82.205 201.748 82.6161 201.748 83.1231C201.748 83.6302 202.159 84.0413 202.666 84.0413Z" fill="#6B6B6B"/>
<path d="M199.361 84.1637C199.868 84.1637 200.279 83.7526 200.279 83.2455C200.279 82.7385 199.868 82.3274 199.361 82.3274C198.854 82.3274 198.443 82.7385 198.443 83.2455C198.443 83.7526 198.854 84.1637 199.361 84.1637Z" fill="#6B6B6B"/>
<path d="M196.056 84.0719C196.563 84.0719 196.974 83.6608 196.974 83.1537C196.974 82.6467 196.563 82.2356 196.056 82.2356C195.548 82.2356 195.137 82.6467 195.137 83.1537C195.137 83.6608 195.548 84.0719 196.056 84.0719Z" fill="#6B6B6B"/>
<path d="M183.569 39.3274C184.076 39.3274 184.487 38.9163 184.487 38.4093C184.487 37.9022 184.076 37.4911 183.569 37.4911C183.062 37.4911 182.651 37.9022 182.651 38.4093C182.651 38.9163 183.062 39.3274 183.569 39.3274Z" fill="#6B6B6B"/>
<path d="M180.386 40.1843C180.893 40.1843 181.304 39.7733 181.304 39.2662C181.304 38.7591 180.893 38.348 180.386 38.348C179.879 38.348 179.468 38.7591 179.468 39.2662C179.468 39.7733 179.879 40.1843 180.386 40.1843Z" fill="#6B6B6B"/>
<path d="M177.754 42.1125C178.261 42.1125 178.672 41.7014 178.672 41.1943C178.672 40.6872 178.261 40.2762 177.754 40.2762C177.247 40.2762 176.836 40.6872 176.836 41.1943C176.836 41.7014 177.247 42.1125 177.754 42.1125Z" fill="#6B6B6B"/>
<path d="M175.795 44.6527C176.302 44.6527 176.713 44.2416 176.713 43.7345C176.713 43.2274 176.302 42.8164 175.795 42.8164C175.288 42.8164 174.877 43.2274 174.877 43.7345C174.877 44.2416 175.288 44.6527 175.795 44.6527Z" fill="#6B6B6B"/>
<path d="M174.632 47.7438C175.139 47.7438 175.55 47.3327 175.55 46.8256C175.55 46.3185 175.139 45.9075 174.632 45.9075C174.125 45.9075 173.714 46.3185 173.714 46.8256C173.714 47.3327 174.125 47.7438 174.632 47.7438Z" fill="#6B6B6B"/>
<path d="M174.265 51.0185C174.772 51.0185 175.183 50.6074 175.183 50.1004C175.183 49.5933 174.772 49.1822 174.265 49.1822C173.758 49.1822 173.347 49.5933 173.347 50.1004C173.347 50.6074 173.758 51.0185 174.265 51.0185Z" fill="#6B6B6B"/>
<path d="M174.51 54.3238C175.017 54.3238 175.428 53.9128 175.428 53.4057C175.428 52.8986 175.017 52.4875 174.51 52.4875C174.003 52.4875 173.591 52.8986 173.591 53.4057C173.591 53.9128 174.003 54.3238 174.51 54.3238Z" fill="#6B6B6B"/>
<path d="M121.135 217.907C121.379 217.816 121.594 217.754 121.838 217.663C121.838 217.663 121.747 217.479 121.594 217.112C119.084 211.909 98.2114 170.776 57.9658 162.88C57.6598 162.819 57.3231 162.757 57.0171 162.696C51.9061 161.778 46.5196 161.38 40.827 161.656C40.827 161.656 32.8391 161.809 23.0149 168.725C22.8007 168.878 22.5865 169.031 22.3416 169.184C17.9345 172.398 13.1908 177.019 8.63061 183.569L8.35516 183.936C8.35516 183.936 8.41637 184.12 8.5694 184.456C9.97723 187.7 18.1794 204.992 37.5829 216.347C37.8278 216.5 38.1032 216.653 38.348 216.775C55.9459 226.844 82.4804 231.925 121.135 217.907V217.907Z" fill="#086972"/>
<path d="M121.747 218.091L121.838 217.663L121.93 217.234L121.594 217.142L8.63061 183.63L8.35516 183.997C8.35516 183.997 8.41637 184.181 8.5694 184.517L121.135 217.907L121.747 218.091Z" fill="white"/>
<path d="M38.3787 216.867L55.242 197.953L54.6911 197.28L37.6135 216.438C37.8584 216.591 38.1032 216.714 38.3787 216.867V216.867ZM75.8698 204.043L76.8185 204.166L57.9658 162.91C57.6598 162.849 57.3231 162.788 57.0171 162.727L75.8698 204.043V204.043ZM33.5737 191.801L34.247 191.373L22.9843 168.756C22.7701 168.909 22.5559 169.062 22.311 169.215L33.5737 191.801Z" fill="white"/>
<path d="M119.543 216.102L119.91 216.377C119.91 216.377 119.972 216.255 120.125 216.071C122.083 212.98 137.08 187.823 127.684 163.553C127.623 163.369 127.531 163.155 127.47 162.972C126.246 159.911 124.623 156.881 122.542 153.912C122.542 153.912 119.757 149.689 112.718 146.751C112.565 146.69 112.412 146.628 112.228 146.567C109.015 145.282 104.914 144.302 99.864 144.088H99.558C99.558 144.088 99.4968 144.18 99.3438 144.394C98.089 146.231 91.5701 156.483 92.0598 170.776C92.0598 170.959 92.0598 171.143 92.0904 171.327C92.6719 184.15 98.9459 200.095 119.543 216.102V216.102Z" fill="#17B978"/>
<path d="M119.665 216.5L119.941 216.408L120.216 216.316L120.155 216.102L99.8641 144.149H99.558C99.558 144.149 99.4968 144.241 99.3438 144.456L119.543 216.163L119.665 216.5Z" fill="white"/>
<path d="M92.0904 171.327L107.944 173.989L108.097 173.469L92.0292 170.776C92.0598 170.959 92.0598 171.143 92.0904 171.327ZM111.678 187.119L111.922 187.67L127.684 163.584C127.623 163.4 127.531 163.186 127.47 163.002L111.678 187.119V187.119ZM103.904 160.278L104.363 160.493L112.688 146.782C112.535 146.72 112.381 146.659 112.198 146.598L103.904 160.278V160.278Z" fill="white"/>
<path d="M119.788 217.754C120.002 217.785 120.216 217.785 120.4 217.816V217.357C120.4 212.827 119.451 176.683 91.6619 157.34C91.4477 157.187 91.2334 157.034 90.9886 156.881C87.4384 154.494 83.4598 152.352 79.0221 150.607C79.0221 150.607 72.8704 147.975 62.8932 149.505C62.679 149.536 62.4342 149.567 62.2199 149.597C57.6904 150.362 52.3957 151.984 46.5502 155.045C46.4277 155.106 46.3359 155.167 46.2135 155.228C46.2135 155.228 46.2135 155.381 46.1829 155.688C46.0605 158.442 46.0299 173.438 56.711 188.098C56.864 188.282 56.9865 188.465 57.1395 188.68C66.8719 201.717 85.2655 214.388 119.788 217.754V217.754Z" fill="#177844"/>
<path d="M120.186 218.091L120.4 217.816L120.614 217.54L120.4 217.357L46.5502 155.045C46.4278 155.106 46.3359 155.167 46.2135 155.228C46.2135 155.228 46.2135 155.382 46.1829 155.688L119.757 217.754L120.186 218.091V218.091Z" fill="white"/>
<path d="M57.1395 188.649L76.8491 181.09L76.6655 180.416L56.711 188.068C56.8641 188.282 56.9865 188.465 57.1395 188.649V188.649ZM90.3765 192.444L91.0498 192.873L91.6925 157.31C91.4783 157.157 91.2641 157.004 91.0192 156.851L90.3765 192.444ZM62.5872 169.337L63.2605 169.276L62.8932 149.475C62.679 149.505 62.4342 149.536 62.2199 149.567L62.5872 169.337Z" fill="white"/>
<path d="M137.631 219.53L136.498 228.405L132.673 229.782L133.683 219.132L137.631 219.53ZM120.186 219.53L119.053 228.405L115.228 229.782L116.238 219.132L120.186 219.53Z" fill="#A7FF83"/>
<path d="M125.144 109.719L119.115 117.401L124.868 120.522L131.326 112.535L125.144 109.719Z" fill="#8BCC71"/>
<path d="M140.599 110.27C140.416 109.107 140.293 107.913 140.201 106.72C140.14 105.771 140.171 104.822 140.201 103.873C140.293 102.925 140.293 101.976 140.232 101.088C140.232 101.119 140.201 101.149 140.201 101.18C140.14 100.384 140.018 99.5886 139.804 98.8235C139.191 96.8954 137.937 95.0897 135.978 94.4164C132.06 93.1004 127.286 96.7729 125.297 102.649C123.307 108.525 124.868 114.371 128.786 115.687C131.571 116.636 134.784 115.044 137.11 111.953C138.028 111.922 138.947 111.861 139.834 111.616C140.14 111.525 140.446 111.402 140.599 111.127C140.691 110.851 140.66 110.545 140.599 110.27V110.27Z" fill="#A7FF83"/>
<path d="M143.843 100.599C145.098 100.17 146.169 99.0989 146.414 97.8135C146.659 96.4975 145.925 95.0285 144.67 94.6C143.721 94.2634 142.589 94.5388 141.732 94.0491C141.211 93.7431 140.875 93.2228 140.507 92.7637C138.488 90.1929 135.152 88.7239 131.907 88.9687C128.663 89.2135 125.572 91.1416 123.95 93.9573C122.573 96.3445 122.236 99.1908 122.481 101.915C122.726 104.638 123.552 107.301 124.348 109.902C125.695 107.24 127.041 104.577 128.388 101.945C128.694 101.364 129 100.752 129.551 100.415C130.102 100.078 130.959 100.109 131.265 100.66C131.479 101.027 131.418 101.486 131.418 101.884C131.418 102.312 131.479 102.802 131.846 102.986C132.244 103.2 132.764 102.955 133.132 102.68C133.927 102.098 134.631 101.394 135.274 100.629C135.672 100.14 136.07 99.5274 136.651 99.2826C137.294 99.0071 137.845 99.3132 138.426 99.6498C139.222 100.109 140.048 100.537 140.967 100.721C141.915 100.905 142.925 100.905 143.843 100.599V100.599ZM139.804 156.269C140.997 163.92 142.13 177.233 143.323 184.885C145.068 196.117 139.528 212.919 137.478 224.09C135.978 223.906 134.662 223.447 133.162 223.263C133.652 204.319 132.795 180.172 131.571 161.258C134.233 161.594 137.141 155.932 139.804 156.269V156.269Z" fill="#086972"/>
<path d="M121.226 161.594C122.787 161.686 124.317 160.278 125.878 160.401C127.776 160.523 129.826 160.89 131.632 161.441C133.438 161.992 135.549 160.309 137.325 159.697C137.692 162.757 137.049 168.205 136.468 171.235C135.121 178.335 133.56 185.374 131.754 192.352C130.775 196.209 127.868 199.912 126.337 203.584C125.695 205.145 125.083 206.767 124.501 208.359C123.277 211.664 121.165 220.968 119.941 224.273C118.441 224.151 116.911 224.12 115.411 223.998C115.564 220.662 116.88 211.052 117.003 207.716C117.248 202.146 120.033 196.3 122.236 191.159C121.135 185.833 121.104 180.049 121.135 174.601C121.165 169.796 121.196 166.369 121.226 161.594V161.594Z" fill="#0E818C"/>
<path d="M142.374 141.028C142.925 141.12 143.568 141.089 143.996 140.722C144.211 140.538 144.364 140.263 144.517 140.048C145.037 139.436 145.925 139.13 146.69 139.314C148.281 139.712 149.046 141.732 150.638 142.068C150.883 142.13 151.127 142.13 151.372 142.221C151.617 142.313 151.831 142.466 151.862 142.711C151.923 143.017 151.709 143.262 151.495 143.507C151.219 143.813 150.913 144.119 150.638 144.425C150.515 144.547 150.362 144.7 150.209 144.762C149.873 144.915 149.444 144.762 149.169 144.976C148.924 145.159 148.863 145.527 148.587 145.71C148.189 145.955 147.638 145.588 147.179 145.772C146.935 145.863 146.782 146.078 146.598 146.2C146.261 146.414 145.802 146.384 145.404 146.261C145.006 146.108 144.67 145.863 144.333 145.68C143.874 145.435 143.384 145.251 142.895 145.098C141.548 144.762 140.11 144.853 138.702 144.976C138.641 143.874 138.61 142.772 138.549 141.67C138.549 141.487 138.549 141.273 138.641 141.089C138.824 140.752 139.314 140.752 139.712 140.844C140.201 140.967 140.446 140.936 140.905 140.844C141.364 140.752 141.915 140.967 142.374 141.028V141.028Z" fill="#A7FF83"/>
<path d="M145.986 145.251C145.833 145.006 145.894 144.67 146.139 144.517L154.953 138.702C155.198 138.549 155.535 138.61 155.688 138.855C155.841 139.1 155.779 139.436 155.535 139.589L146.72 145.404C146.475 145.557 146.139 145.496 145.986 145.251Z" fill="#086972"/>
<path d="M138.947 223.814C139.069 223.539 139.406 223.447 139.62 223.631C140.569 224.426 143.109 226.232 148.159 227.395C148.159 227.395 149.383 227.64 150.27 229.078H131.54V225.773C131.54 225.406 131.969 225.222 132.244 225.436L132.979 226.048C133.315 226.354 133.774 226.507 134.203 226.507L136.896 226.538C137.478 226.538 137.998 226.201 138.212 225.651L138.947 223.814V223.814Z" fill="#2A2A2A"/>
<path d="M150.292 231.015H131.562V229.087H150.292V231.015Z" fill="#0E818C"/>
<path d="M120.645 224.855C120.828 224.641 121.196 224.671 121.349 224.916C121.961 225.987 123.767 228.527 128.082 231.374C128.082 231.374 129.153 232.047 129.52 233.669L111.892 227.334L113.024 224.212C113.147 223.875 113.606 223.814 113.789 224.151L114.248 224.977C114.463 225.375 114.83 225.681 115.258 225.834L117.768 226.752C118.319 226.967 118.931 226.783 119.298 226.354L120.645 224.855V224.855Z" fill="#2A2A2A"/>
<path d="M128.833 235.494L111.21 229.15L111.863 227.336L129.486 233.68L128.833 235.494Z" fill="#0E818C"/>
<path d="M139.222 139.467C140.569 143.966 141.579 151.036 142.221 155.688C142.374 156.789 142.283 160.952 141.517 161.747C141.058 162.237 129.214 163.553 124.287 165.175C123.614 165.389 120.4 166.644 119.757 166.369C118.839 165.971 118.349 161.931 118.564 160.982C121.41 148.71 121.41 157.738 117.248 133.591C116.421 128.755 114.83 124.287 116.483 119.665C117.033 118.135 121.196 113.667 121.196 113.667C121.196 113.667 122.604 115.167 124.042 116.023C125.236 116.727 126.796 117.982 127.806 118.227C132.428 119.298 137.6 134.05 139.222 139.467V139.467Z" fill="#17B978"/>
<path d="M133.499 172.214C133.897 173.071 134.08 174.02 134.172 174.938C134.295 176.56 134.111 178.182 133.652 179.712C132.979 179.559 132.428 178.947 132.336 178.243C132.642 178.733 132.367 179.468 131.816 179.621C131.265 179.774 130.653 179.253 130.683 178.672C130.53 179.162 129.979 179.529 129.49 179.437C128.969 179.345 128.572 178.856 128.602 178.335C128.816 178.488 128.755 178.856 128.572 179.009C128.357 179.162 128.051 179.131 127.837 179.009C127.623 178.886 127.47 178.641 127.378 178.396C127.225 177.968 127.164 177.509 127.133 177.05C126.98 175.091 126.858 173.102 126.705 171.143C126.674 170.868 126.674 170.592 126.796 170.347C127.041 169.888 127.684 169.827 128.235 169.858L130.347 169.949C130.806 169.98 131.295 169.949 131.724 170.102C132.489 170.47 133.132 171.48 133.499 172.214V172.214Z" fill="#A7FF83"/>
<path d="M125.848 126.246C125.603 130.377 125.358 134.54 125.083 138.671C124.93 140.967 124.807 143.293 125.144 145.557C125.419 147.455 126.001 149.291 126.582 151.097C128.694 157.646 130.806 164.196 132.948 170.745C130.683 170.592 128.388 170.439 126.123 170.286C124.317 163.278 120.828 150.76 120.522 149.628C118.013 141.762 117.125 133.407 117.921 125.205L125.848 126.246V126.246Z" fill="#17B978"/>
<path d="M115.381 86C115.381 77.8897 106.475 71.3096 95.4875 71.3096C84.5003 71.3096 75.5943 77.8897 75.5943 86C75.5943 94.1103 84.5003 100.69 95.4875 100.69C97.5687 100.69 99.5886 100.446 101.456 100.017L108.648 105.893V97.0178C112.779 94.3245 115.381 90.3765 115.381 86Z" fill="#177844"/>
<path d="M103.904 71.7687C103.904 65.1886 96.6811 59.8327 87.7445 59.8327C78.8078 59.8327 71.5851 65.158 71.5851 71.7687C71.5851 78.3487 78.8078 83.7046 87.7445 83.7046C89.4278 83.7046 91.0804 83.521 92.6107 83.1537L98.4256 87.9281V80.7359C101.792 78.5018 103.904 75.3189 103.904 71.7687V71.7687Z" fill="white"/>
<path d="M96.0997 67.484H78.6548C78.41 67.484 78.1957 67.2697 78.1957 67.0249C78.1957 66.7801 78.41 66.5658 78.6548 66.5658H96.0997C96.3445 66.5658 96.5587 66.7801 96.5587 67.0249C96.5587 67.2697 96.3445 67.484 96.0997 67.484ZM96.0997 70.7893H78.6548C78.41 70.7893 78.1957 70.5751 78.1957 70.3302C78.1957 70.0854 78.41 69.8712 78.6548 69.8712H96.0997C96.3445 69.8712 96.5587 70.0854 96.5587 70.3302C96.5587 70.5751 96.3445 70.7893 96.0997 70.7893ZM96.0997 74.1253H78.6548C78.41 74.1253 78.1957 73.911 78.1957 73.6662C78.1957 73.4213 78.41 73.2071 78.6548 73.2071H96.0997C96.3445 73.2071 96.5587 73.4213 96.5587 73.6662C96.5587 73.911 96.3445 74.1253 96.0997 74.1253ZM96.0997 77.4306H78.6548C78.41 77.4306 78.1957 77.2164 78.1957 76.9715C78.1957 76.7267 78.41 76.5124 78.6548 76.5124H96.0997C96.3445 76.5124 96.5587 76.7267 96.5587 76.9715C96.5587 77.2164 96.3445 77.4306 96.0997 77.4306Z" fill="#177844"/>
</g>
<defs>
<clipPath id="clip0_16_731">
<rect width="258" height="258" fill="white"/>
</clipPath>
</defs>
</svg>
