<svg width="285" height="285" viewBox="0 0 285 285" fill="none" xmlns="http://www.w3.org/2000/svg">
<g clip-path="url(#clip0_12_164)">
<path opacity="0.63" d="M194.998 28.3615C164.836 8.4842 122.45 12.5012 95.7849 42.0055C81.206 58.1428 75.2843 80.3402 60.1513 96.1312C43.1136 113.931 22.7515 131.211 15.0292 155.451C6.822 181.216 14.0249 210.755 32.3785 230.459C54.7145 254.422 87.5431 247.219 118.571 246.838C245.626 245.245 340.061 160.438 219.897 55.8919C209.854 47.096 204.971 34.9064 194.998 28.3615Z" fill="#14AE5C"/>
<path d="M251.929 42.1093H37.5729C33.2789 42.1093 29.7813 45.5723 29.7813 49.8663V197.491H259.721V49.8663C259.721 45.5723 256.223 42.1093 251.929 42.1093Z" fill="#2B2B2B"/>
<path d="M251.652 45.3645H37.8499C35.1835 45.3645 33.0364 47.5115 33.0364 50.178V195.31H256.465V50.178C256.465 47.5115 254.318 45.3645 251.652 45.3645Z" fill="#464646"/>
<path d="M41.0705 56.0996H248.431V190.15H41.0705V56.0996Z" fill="#2B2B2B"/>
<path d="M145.928 51.39C145.928 52.048 145.409 52.5674 144.751 52.5674C144.093 52.5674 143.574 52.048 143.574 51.39C143.574 50.7321 144.093 50.2126 144.751 50.2126C145.409 50.2473 145.928 50.7667 145.928 51.39Z" fill="#F6F6F6"/>
<path d="M67.0771 63.5103H87.8548V67.181H67.0771V63.5103Z" fill="#14AE5C"/>
<path d="M48.308 63.5103H56.8615V67.181H48.308V63.5103ZM48.308 70.2284H56.8615V73.8992H48.308V70.2284ZM48.308 78.1932H56.8615V81.8639H48.308V78.1932ZM48.308 86.1233H56.8615V89.794H48.308V86.1233ZM48.308 94.0881H56.8615V97.7588H48.308V94.0881ZM48.308 102.018H56.8615V105.689H48.308V102.018ZM92.1488 63.5103H161.858V67.181H92.1488V63.5103Z" fill="#68CB40"/>
<path d="M74.4186 70.2284H95.1962V73.8991H74.4186V70.2284Z" fill="#14AE5C"/>
<path d="M99.4903 70.2284H169.199V73.8991H99.4903V70.2284Z" fill="#68CB40"/>
<path d="M86.6774 78.1932H107.455V81.8639H86.6774V78.1932Z" fill="#14AE5C"/>
<path d="M111.749 78.1932H181.458V81.8639H111.749V78.1932Z" fill="#68CB40"/>
<path d="M98.9016 86.1233H119.679V89.794H98.9016V86.1233Z" fill="#14AE5C"/>
<path d="M123.973 86.1233H193.682V89.794H123.973V86.1233Z" fill="#68CB40"/>
<path d="M86.6774 94.0881H107.455V97.7588H86.6774V94.0881Z" fill="#14AE5C"/>
<path d="M111.749 94.0881H218.165V97.7588H111.749V94.0881Z" fill="#68CB40"/>
<path d="M74.4186 102.018H95.1962V105.689H74.4186V102.018Z" fill="#14AE5C"/>
<path d="M99.4903 102.018H144.751V105.689H99.4903V102.018Z" fill="#68CB40"/>
<path opacity="0.4" d="M67.0771 112.442H87.8548V116.112H67.0771V112.442Z" fill="#14AE5C"/>
<path opacity="0.4" d="M48.308 112.442H56.8615V116.112H48.308V112.442ZM48.308 119.16H56.8615V122.831H48.308V119.16ZM48.308 127.125H56.8615V130.795H48.308V127.125ZM48.308 135.055H56.8615V138.725H48.308V135.055ZM48.308 143.019H56.8615V146.69H48.308V143.019ZM48.308 150.95H56.8615V154.62H48.308V150.95ZM92.1488 112.442H161.858V116.112H92.1488V112.442Z" fill="#68CB40"/>
<path opacity="0.4" d="M74.4186 119.16H95.1962V122.831H74.4186V119.16Z" fill="#14AE5C"/>
<path opacity="0.4" d="M99.4903 119.16H169.199V122.831H99.4903V119.16Z" fill="#68CB40"/>
<path opacity="0.4" d="M86.6774 127.125H107.455V130.795H86.6774V127.125Z" fill="#14AE5C"/>
<path opacity="0.4" d="M111.749 127.125H181.458V130.795H111.749V127.125Z" fill="#68CB40"/>
<path opacity="0.4" d="M67.0771 161.338H87.8548V165.009H67.0771V161.338Z" fill="#14AE5C"/>
<path opacity="0.4" d="M48.308 161.338H56.8615V165.009H48.308V161.338ZM48.308 168.091H56.8615V171.762H48.308V168.091ZM48.308 176.021H56.8615V179.692H48.308V176.021ZM92.1488 161.338H161.858V165.009H92.1488V161.338Z" fill="#68CB40"/>
<path opacity="0.4" d="M74.4186 168.091H95.1962V171.762H74.4186V168.091Z" fill="#14AE5C"/>
<path opacity="0.4" d="M99.4903 168.091H169.199V171.762H99.4903V168.091Z" fill="#68CB40"/>
<path opacity="0.4" d="M86.6774 176.021H107.455V179.692H86.6774V176.021Z" fill="#14AE5C"/>
<path opacity="0.4" d="M111.749 176.021H181.458V179.692H111.749V176.021Z" fill="#68CB40"/>
<path opacity="0.4" d="M98.9016 135.055H119.679V138.725H98.9016V135.055Z" fill="#14AE5C"/>
<path opacity="0.4" d="M123.973 135.055H230.389V138.725H123.973V135.055Z" fill="#68CB40"/>
<path opacity="0.4" d="M86.6774 143.019H107.455V146.69H86.6774V143.019Z" fill="#14AE5C"/>
<path opacity="0.4" d="M111.749 143.019H181.458V146.69H111.749V143.019Z" fill="#68CB40"/>
<path opacity="0.4" d="M74.4186 150.95H95.1962V154.62H74.4186V150.95Z" fill="#14AE5C"/>
<path opacity="0.4" d="M99.4903 150.95H169.199V154.62H99.4903V150.95Z" fill="#68CB40"/>
<path d="M274.992 194.86H14.5097C13.0206 194.86 11.774 196.072 11.774 197.595V201.128C11.774 202.617 12.986 203.863 14.5097 203.863H275.027C276.516 203.863 277.762 202.651 277.762 201.128V197.595C277.728 196.072 276.516 194.86 274.992 194.86V194.86Z" fill="#2B2B2B"/>
<path d="M167.087 198.773H122.415C121.826 198.773 121.341 199.258 121.341 199.846C121.341 200.435 121.826 200.92 122.415 200.92H167.122C167.71 200.92 168.195 200.435 168.195 199.846C168.16 199.258 167.676 198.773 167.087 198.773V198.773Z" fill="#F7F7F7"/>
<path d="M203.829 233.748L203.794 239.324C203.794 239.324 204.487 242.891 205.075 246.7C205.629 250.509 206.08 254.561 205.491 255.496C204.348 257.366 202.097 255.496 201.716 253.626C201.335 251.756 200.781 240.086 200.781 240.086L200.4 232.571L203.829 233.748V233.748ZM209.508 232.987L208.642 238.008C208.642 238.008 206.945 251.721 207.88 253.799C208.815 255.877 211.828 254.942 211.655 252.102C211.482 249.297 212.209 239.324 212.209 239.324L213.906 233.298L209.508 232.987V232.987Z" fill="#2B2B2B"/>
<path d="M207.188 171.866L206.772 178.03L222.702 185.717C225.576 187.276 226.961 190.635 226.026 193.752L215.014 234.718L209.543 232.987L214.356 195.31C214.702 192.99 213.109 190.843 210.789 190.462L205.11 189.561L199.084 183.397L206.08 189.665C207.776 191.189 208.608 193.44 208.296 195.691L203.829 233.748L198.877 234.995L196.66 197.561C196.487 195.171 194.894 193.163 192.643 192.436L182.843 189.319C181.285 188.384 180.315 186.687 180.246 184.852L180.662 171.658L207.188 171.866V171.866Z" fill="#2B2B2B"/>
<path d="M179.623 185.683L182.255 134.501C182.255 134.501 193.128 133.843 196.383 133.843C198.149 133.843 201.162 134.674 203.552 135.436C205.803 136.163 207.638 136.094 208.746 138.171L226.58 172.385L215.603 173.424L211.932 169.269L213.802 166.464L207.118 150.742L208.434 179.311L179.623 185.683V185.683Z" fill="#14AE5C"/>
<path opacity="0.08" d="M207.361 144.508L219.204 165.875L215.533 170.204C215.533 170.204 214.044 170.515 212.625 170.03L211.967 169.269L213.837 166.464L207.153 150.742L207.361 144.508V144.508Z" fill="#3B5441"/>
<path d="M196.834 149.322C193.232 149.322 186.652 139.937 186.652 136.336C186.652 135.609 186.791 134.916 186.999 134.258C190.358 134.085 194.548 133.877 196.383 133.877C197.18 133.877 198.219 134.05 199.361 134.293C199.569 134.951 199.708 135.609 199.708 136.336C199.673 139.937 200.435 149.322 196.834 149.322V149.322Z" fill="white"/>
<path opacity="0.08" d="M180.939 143.366L179.623 185.995L197.214 181.77L180.939 143.366Z" fill="#3B5441"/>
<path d="M197.457 128.614C197.145 129.237 194.998 137.617 194.998 137.617C194.998 137.617 194.236 139.002 192.401 138.829C190.566 138.691 189.804 136.094 189.804 136.094L193.024 125.566L197.457 128.614V128.614Z" fill="#E2E2E2"/>
<path d="M186.168 123.454C186.168 129.237 192.297 135.643 198.08 135.643C203.863 135.643 207.084 129.237 207.084 123.454C207.084 117.671 202.409 112.996 196.626 112.996C190.843 112.961 186.168 117.671 186.168 123.454V123.454Z" fill="#FF0202"/>
<path d="M198.758 135.913C205.176 134.867 209.531 128.816 208.485 122.398C207.438 115.98 201.388 111.625 194.97 112.672C188.552 113.718 184.197 119.769 185.243 126.187C186.29 132.605 192.341 136.959 198.758 135.913Z" fill="white"/>
<path d="M194.652 180.765C195.102 180.627 198.981 178.722 201.716 178.722C204.452 178.722 207.811 181.631 207.811 181.631C207.811 181.631 208.261 183.155 206.426 182.843C204.591 182.532 206.668 183.986 206.668 183.986C206.668 183.986 206.564 184.055 204.417 184.367C202.27 184.679 193.959 184.228 193.959 184.228L194.652 180.765Z" fill="white"/>
<path d="M182.255 134.535L180.765 168.195L194.617 180.731L193.959 184.263L174.463 173.84C172.593 172.835 171.519 170.758 171.796 168.645L175.363 142.881C175.64 139.66 177.614 136.821 180.488 135.401L182.255 134.535V134.535ZM193.232 187.137H228.485V184.54H193.232C192.505 184.54 191.951 185.129 191.951 185.821C191.916 186.549 192.505 187.137 193.232 187.137Z" fill="#14AE5C"/>
<path d="M202.894 187.137H236.9C238.389 187.137 239.705 186.133 240.12 184.679L246.111 162.066C246.665 159.953 245.072 157.91 242.891 157.91H213.213C211.724 157.91 210.408 158.914 209.993 160.369L202.894 187.137Z" fill="#14AE5C"/>
<path opacity="0.22" d="M202.894 187.137H236.9C238.389 187.137 239.705 186.133 240.12 184.679L246.111 162.066C246.665 159.953 245.072 157.91 242.891 157.91H213.213C211.724 157.91 210.408 158.914 209.993 160.369L202.894 187.137Z" fill="white"/>
<path d="M222.909 174.532C222.529 176.021 223.464 177.199 224.987 177.199C226.511 177.199 228.035 175.987 228.416 174.532C228.796 173.043 227.861 171.866 226.338 171.866C224.814 171.831 223.29 173.043 222.909 174.532Z" fill="white"/>
<path d="M196.868 112.511C202.928 112.511 207.88 117.082 208.573 122.934C206.53 124.458 203.863 125.116 201.335 124.7C198.357 124.181 195.691 122.138 194.444 119.402C194.548 120.718 194.617 122.034 194.41 123.315C194.202 124.597 193.648 125.878 192.609 126.709C192.54 125.809 192.436 124.839 191.985 124.043C191.501 123.246 190.496 122.692 189.665 123.038C189.042 123.281 188.661 123.904 188.557 124.562C188.453 125.22 188.626 125.878 188.869 126.501C189.25 127.471 189.804 128.371 190.496 129.098C189.111 129.306 187.622 129.479 186.237 129.341C185.51 127.783 185.06 126.086 185.06 124.25C185.06 117.775 190.358 112.511 196.868 112.511V112.511Z" fill="#2AD8F4"/>
<path d="M186.722 126.224C186.722 128.198 188.315 129.791 190.289 129.791C192.262 129.791 193.855 128.198 193.855 126.224C193.855 124.25 192.262 122.657 190.289 122.657C188.349 122.657 186.722 124.25 186.722 126.224ZM209.508 232.987L208.885 236.761L212.625 237.939L213.663 234.233L209.508 232.987ZM203.794 237.939L200.677 238.527L200.504 234.58L203.829 233.748L203.794 237.939Z" fill="white"/>
</g>
<defs>
<clipPath id="clip0_12_164">
<rect width="285" height="285" fill="white"/>
</clipPath>
</defs>
</svg>
