<svg width="296" height="296" viewBox="0 0 296 296" fill="none" xmlns="http://www.w3.org/2000/svg">
<g clip-path="url(#clip0_14_260)">
<g opacity="0.1">
<path d="M71.8879 175.087C71.78 174.517 71.6104 173.962 71.3792 173.438C71.2404 173.114 71.2866 172.744 71.5179 172.466L72.4583 171.31L71.04 169.583L69.7296 170.277C69.4212 170.447 69.0358 170.416 68.7429 170.215C68.265 169.892 67.7562 169.614 67.2167 169.398C66.8929 169.275 66.6617 168.967 66.6308 168.612L66.4921 167.132L64.2721 166.916L63.8404 168.35C63.7325 168.689 63.455 168.936 63.1004 168.998C62.53 169.105 61.975 169.275 61.4508 169.506C61.1271 169.645 60.7571 169.599 60.4796 169.368L59.3233 168.427L57.5967 169.845L58.2904 171.156C58.46 171.464 58.4292 171.85 58.2287 172.143C57.905 172.62 57.6275 173.129 57.4116 173.669C57.2883 173.993 56.98 174.224 56.6254 174.255L55.1454 174.393L54.9296 176.613L56.3633 177.045C56.7025 177.153 56.9491 177.43 57.0108 177.785C57.1187 178.355 57.2883 178.91 57.5196 179.435C57.6583 179.758 57.6121 180.144 57.3808 180.406L56.4404 181.562L57.8587 183.289L59.1691 182.595C59.4775 182.425 59.8629 182.456 60.1558 182.657C60.6337 182.98 61.1425 183.258 61.6821 183.474C62.0058 183.597 62.2371 183.905 62.2679 184.26L62.4066 185.74L64.6267 185.956L65.0583 184.522C65.1662 184.183 65.4437 183.936 65.7983 183.875C66.3687 183.767 66.9237 183.597 67.4479 183.366C67.7717 183.227 68.1416 183.273 68.4191 183.505L69.5754 184.445L71.3021 183.027L70.6083 181.716C70.4387 181.408 70.4696 181.023 70.67 180.73C70.9937 180.252 71.2712 179.743 71.4871 179.203C71.6104 178.88 71.9187 178.648 72.2733 178.618L73.7533 178.479L73.9691 176.259L72.5354 175.827C72.2117 175.719 71.9496 175.426 71.8879 175.087ZM63.9021 182.086C60.7879 181.778 58.5062 179.003 58.8146 175.889C59.1229 172.775 61.8979 170.493 65.0121 170.801C68.1262 171.11 70.4079 173.885 70.0996 176.999C69.7912 180.113 67.0162 182.379 63.9021 182.086Z" fill="#4DD98D"/>
<path d="M60.6954 176.058C60.8958 173.977 62.7458 172.466 64.8271 172.667C66.9083 172.867 68.4192 174.717 68.2188 176.798C68.0183 178.88 66.1683 180.39 64.0871 180.19C62.0058 179.99 60.495 178.14 60.6954 176.058Z" fill="#4DD98D"/>
</g>
<path opacity="0.1" d="M140.908 225.361C179.436 225.361 210.669 222.835 210.669 219.718C210.669 216.602 179.436 214.076 140.908 214.076C102.381 214.076 71.1479 216.602 71.1479 219.718C71.1479 222.835 102.381 225.361 140.908 225.361Z" fill="#4DD98D"/>
<path opacity="0.19" d="M119.757 201.727C119.757 203.038 120.82 204.101 122.131 204.101H207.431C208.742 204.101 209.805 203.038 209.805 201.727V128.282H119.772V201.727H119.757Z" fill="#177844"/>
<path d="M146.551 171.402C146.952 172.79 147.507 174.131 148.216 175.411C148.647 176.182 148.617 177.137 148.123 177.877L146.057 180.976L150.02 184.938L153.118 182.872C153.858 182.379 154.814 182.348 155.585 182.78C156.849 183.489 158.19 184.044 159.593 184.445C160.441 184.692 161.089 185.385 161.274 186.264L161.998 189.918H167.595L168.335 186.249C168.504 185.385 169.152 184.676 170.015 184.43C171.402 184.029 172.744 183.474 174.023 182.765C174.794 182.333 175.75 182.364 176.49 182.857L179.589 184.923L183.551 180.961L181.485 177.862C180.992 177.122 180.961 176.166 181.392 175.395C182.102 174.131 182.657 172.79 183.057 171.387C183.304 170.539 183.998 169.892 184.877 169.707L188.53 168.982V163.386L184.861 162.646C183.998 162.476 183.289 161.829 183.042 160.965C182.641 159.578 182.086 158.237 181.377 156.957C180.945 156.186 180.976 155.23 181.47 154.49L183.535 151.392L179.573 147.43L176.475 149.495C175.735 149.989 174.779 150.02 174.008 149.588C172.744 148.879 171.402 148.324 170 147.923C169.152 147.676 168.504 146.982 168.319 146.104L167.595 142.45H161.998L161.258 146.119C161.089 146.982 160.441 147.692 159.578 147.938C158.19 148.339 156.849 148.894 155.57 149.603C154.799 150.035 153.843 150.004 153.103 149.511L150.004 147.445L146.042 151.407L148.108 154.506C148.601 155.246 148.632 156.202 148.2 156.972C147.491 158.237 146.936 159.578 146.535 160.981C146.289 161.829 145.595 162.476 144.716 162.661L141.062 163.386V168.982L144.732 169.722C145.61 169.892 146.32 170.539 146.551 171.402V171.402ZM164.773 151.962C172.62 151.962 178.987 158.329 178.987 166.176C178.987 174.023 172.62 180.39 164.773 180.39C156.926 180.39 150.559 174.023 150.559 166.176C150.559 158.345 156.926 151.977 164.773 151.962ZM119.757 116.427V123.534H209.79V116.427C209.79 115.116 208.726 114.052 207.416 114.052H122.115C120.805 114.052 119.757 115.116 119.757 116.427V116.427ZM143.452 116.427H148.185V121.175H143.452V116.427ZM133.971 116.427H138.704V121.175H133.971V116.427ZM124.49 116.427H129.222V121.175H124.49V116.427Z" fill="#177844"/>
<path d="M174.255 166.192C174.255 171.418 170.015 175.673 164.773 175.673C159.532 175.673 155.292 171.433 155.292 166.192C155.292 160.965 159.532 156.71 164.773 156.71C170 156.71 174.255 160.95 174.255 166.192ZM167.148 73.7842C167.148 72.4738 166.084 71.41 164.773 71.41H79.4729C78.1625 71.41 77.0988 72.4738 77.0988 73.7842V80.8913H167.132V73.7842H167.148ZM86.58 78.5171H81.8471V73.7842H86.58V78.5171ZM96.0613 78.5171H91.3283V73.7842H96.0613V78.5171ZM105.543 78.5171H100.81V73.7842H105.543V78.5171Z" fill="#177844"/>
<path opacity="0.19" d="M115.008 116.427C115.008 112.495 118.184 109.32 122.115 109.32H167.132V85.6242H77.0988V159.069C77.0988 160.38 78.1625 161.443 79.4729 161.443H115.008V116.427V116.427ZM133.971 97.4796H138.704V102.212H133.971V97.4796V97.4796ZM124.49 97.4796H129.223V102.212H124.49V97.4796V97.4796ZM115.008 97.4796H119.741V102.212H115.008V97.4796V97.4796ZM105.543 154.336H86.58V149.603H105.543V154.336ZM105.543 144.855H86.58V140.122H105.543V144.855ZM105.543 135.389H86.58V130.656H105.543V135.389ZM105.543 125.908H86.58V121.175H105.543V125.908V125.908ZM105.543 116.427H86.58V111.694H105.543V116.427ZM105.543 102.212V97.4796H110.275V102.212H105.543V102.212Z" fill="#177844"/>
<path d="M133.555 183.011L133.647 180.514L135.42 181.053L135.759 184.168C135.759 184.168 134.063 184.275 133.555 183.011V183.011Z" fill="#D6D6D6"/>
<path d="M133.709 183.027C134.125 183.196 134.819 183.35 135.682 183.15L135.574 182.441C135.574 182.441 136.067 182.734 136.191 183.381C136.314 184.013 136.345 183.844 137.147 184.337C137.964 184.83 137.902 185.94 137.902 185.94L131.859 185.786C131.859 185.786 131.689 184.568 132.784 183.273C133 182.996 133.385 182.888 133.709 183.027V183.027Z" fill="#14AE5C"/>
<path d="M123.95 146.304C123.95 146.304 123.164 149.372 124.274 151.299C125.384 153.226 127.388 148.956 127.388 148.956C127.388 148.956 127.033 144.855 123.95 146.304Z" fill="#177844"/>
<path d="M123.395 131.751C123.395 131.751 119.325 137.285 118.647 140.631C117.953 143.976 118.693 151.284 118.693 151.284H120.358C120.358 151.284 121.237 141.957 121.792 140.631C122.347 139.274 125.954 133.015 125.954 133.015L123.395 131.751V131.751Z" fill="white"/>
<path d="M122.701 185.663H138.149V187.436H122.701V185.663ZM119.402 197.904H136.006V199.677H119.402V197.904ZM117.907 209.744H134.51V211.517H117.907V209.744Z" fill="#D3D3D3"/>
<path d="M116.242 221.522H114.392L128.02 157.42H129.053L116.242 221.522ZM135.559 221.522H133.709L144.516 155.616L145.425 156.048L135.559 221.522Z" fill="#D3D3D3"/>
<path d="M131.812 221.522L141.756 157.528L128.02 157.42L114.392 221.522H112.264L126.108 155.616H144.516L134.295 221.522H131.504" fill="#F5F5F5"/>
<path d="M125.569 183.011L125.661 180.514L127.434 181.053L127.773 184.168C127.758 184.168 126.078 184.275 125.569 183.011V183.011Z" fill="#D6D6D6"/>
<path d="M143.067 126.663C143.067 126.663 147.46 126.34 147.985 124.305C148.509 122.27 148.416 116.781 148.416 116.781H149.942C149.942 116.781 150.991 121.884 150.929 124.305C150.867 126.725 147.923 130.857 143.067 130.595C138.226 130.333 143.067 126.663 143.067 126.663V126.663Z" fill="white"/>
<path d="M128.837 126.401C128.837 126.401 126.293 126.663 125.245 127.773C124.736 128.313 121.576 132.229 121.699 133.077L125.415 135.389L128.452 131.18L128.837 126.401V126.401Z" fill="#4DD98D"/>
<path d="M124.86 145.256C124.86 145.256 123.765 148.493 124.798 152.039C125.831 155.585 125.831 162.738 125.738 164.604C125.646 166.469 123.904 171.865 125.384 181.393H127.665C127.665 181.393 129.053 171.403 129.855 167.148C130.61 163.155 131.566 153.195 131.566 153.195C131.566 153.195 134.433 162.646 133.955 165.082C133.431 167.764 133.37 181.377 133.37 181.377H135.667C135.667 181.377 138.241 169.66 138.395 166.515C138.565 163.37 138.21 145.734 138.21 145.734C138.21 145.734 130.564 140.538 124.86 145.256V145.256Z" fill="#464646"/>
<path d="M132.691 120.25L130.363 127.373L134.572 128.205L135.497 120.82L132.691 120.25Z" fill="#D6D6D6"/>
<path d="M135.081 126C135.081 126 137.933 126.586 138.226 130.317C138.519 134.048 138.92 149.958 138.92 151.33C138.827 151.962 127.742 154.074 124.443 150.868C123.611 150.05 126.34 136.206 125.954 132.568C125.553 128.945 127.712 124.335 135.081 126Z" fill="#4DD98D"/>
<path d="M138.395 133.462C138.395 133.462 139.536 130.857 143.067 130.595C143.067 130.595 143.915 128.174 143.067 126.663C143.067 126.663 136.669 125.353 134.233 125.846C131.797 126.34 138.395 133.462 138.395 133.462V133.462Z" fill="#4DD98D"/>
<path d="M149.927 118.153C149.927 118.153 150.405 115.594 149.557 114.145C149.048 113.282 148.493 112.881 147.938 113.035C147.568 113.143 147.414 113.79 147.507 114.16C147.63 114.638 148.031 115.949 148.247 116.319C148.247 116.319 147.861 116.319 147.46 115.455C147.075 114.608 146.782 115.856 147.09 116.442C147.553 117.29 149.079 119.618 149.927 118.153Z" fill="white"/>
<path d="M125.708 183.027C126.124 183.196 126.818 183.35 127.681 183.15L127.573 182.441C127.573 182.441 128.066 182.734 128.19 183.381C128.313 184.013 128.344 183.844 129.145 184.337C129.963 184.83 129.901 185.94 129.901 185.94L123.858 185.786C123.858 185.786 123.688 184.568 124.783 183.273C125.014 182.996 125.384 182.888 125.708 183.027V183.027Z" fill="#14AE5C"/>
<path d="M138.658 119.186C138.55 118.292 140.492 117.691 136.777 115.07C134.88 113.744 131.581 114.33 130.564 116.334C129.546 118.338 130.086 118.539 129.3 118.678C128.513 118.832 129.346 125.029 134.094 124.952C138.858 124.875 138.658 119.186 138.658 119.186Z" fill="#464646"/>
<path d="M124.212 144.146H138.673C139.259 144.146 139.737 144.577 139.798 145.148C140.045 147.322 140.307 152.255 137.763 152.61C134.495 153.072 133.447 149.542 133.447 146.258L123.95 146.304C123.95 146.304 123.626 144.732 124.212 144.146V144.146Z" fill="#177844"/>
<path d="M120.25 150.42C120.25 150.42 119.973 153.704 121.036 154.598C122.1 155.508 119.155 155.909 118.431 154.244C117.706 152.579 118.693 150.42 118.693 150.42H120.25V150.42Z" fill="white"/>
<path d="M119.972 150.852C119.972 150.852 120.959 151.022 121.329 152.085C121.545 152.687 121.668 153.334 121.73 153.781C121.776 154.074 121.437 154.275 121.19 154.09C120.944 153.905 120.712 153.627 120.743 153.149C120.82 152.147 119.618 152.44 119.618 152.44C119.618 152.44 119.217 151.253 119.972 150.852Z" fill="white"/>
<path d="M136.114 146.412H135.358V144.177C135.358 144.053 135.466 143.945 135.59 143.945H135.898C136.021 143.945 136.129 144.053 136.129 144.177V146.412H136.114ZM137.239 146.412H136.484V144.932C136.484 144.809 136.592 144.701 136.715 144.701H137.023C137.147 144.701 137.255 144.809 137.255 144.932V146.412H137.239ZM138.673 146.412H137.625V143.19C137.625 143.02 137.763 142.882 137.933 142.882H138.365C138.534 142.882 138.673 143.02 138.673 143.19V146.412Z" fill="#F5F5F5"/>
<path opacity="0.32" d="M133.693 146.412H139.521V146.905H133.693V146.412Z" fill="#161616"/>
<path d="M85.9325 191.09C85.655 190.38 85.3158 189.687 84.8842 189.055C84.6221 188.669 84.6067 188.16 84.8225 187.76L85.7784 186.033L83.5275 184.121L81.9858 185.355C81.6158 185.647 81.1225 185.709 80.6909 185.509C79.9971 185.2 79.2571 184.954 78.5171 184.815C78.0546 184.722 77.6846 184.383 77.5613 183.936L77.0217 182.055L74.0771 182.302L73.8458 184.26C73.7996 184.723 73.4758 185.123 73.0442 185.293C72.335 185.57 71.6413 185.91 71.0092 186.341C70.6238 186.603 70.115 186.619 69.7142 186.403L67.9875 185.447L66.0758 187.698L67.3092 189.24C67.6021 189.61 67.6638 190.103 67.4633 190.535C67.155 191.228 66.9083 191.968 66.7696 192.708C66.6771 193.171 66.3379 193.541 65.8908 193.664L63.9946 194.204L64.2413 197.148L66.1992 197.38C66.6617 197.426 67.0625 197.75 67.2321 198.181C67.5096 198.89 67.8488 199.584 68.2804 200.216C68.5425 200.602 68.5579 201.11 68.3421 201.511L67.3863 203.238L69.6371 205.15L71.1788 203.916C71.5488 203.623 72.0421 203.562 72.4738 203.762C73.1675 204.07 73.9075 204.317 74.6475 204.456C75.11 204.548 75.48 204.888 75.6033 205.335L76.1429 207.231L79.0875 206.984L79.3188 205.026C79.365 204.564 79.6888 204.163 80.1204 203.993C80.8296 203.716 81.5234 203.377 82.1554 202.945C82.5409 202.683 83.0496 202.667 83.4504 202.883L85.1771 203.839L87.0888 201.588L85.8554 200.047C85.5625 199.677 85.5009 199.183 85.7013 198.752C86.0096 198.058 86.2563 197.318 86.395 196.578C86.4875 196.115 86.8267 195.745 87.2738 195.622L89.17 195.083L88.9233 192.138L86.9654 191.907C86.5029 191.845 86.1021 191.521 85.9325 191.09V191.09ZM77.2067 202.112C73.075 202.452 69.4521 199.384 69.0975 195.252C68.7583 191.12 71.8263 187.498 75.9579 187.143C80.0896 186.804 83.7125 189.872 84.0671 194.003C84.4063 198.135 81.3383 201.758 77.2067 202.112V202.112Z" fill="#177844"/>
<path d="M71.595 195.052C71.3637 192.292 73.4142 189.872 76.1583 189.64C78.9179 189.409 81.3383 191.46 81.5696 194.204C81.8008 196.963 79.7504 199.384 77.0063 199.615C74.2467 199.846 71.8262 197.811 71.595 195.052Z" fill="#177844"/>
<path d="M109.936 170.801C109.196 170.138 108.395 169.553 107.516 169.075C106.976 168.782 106.668 168.211 106.683 167.61L106.76 165.051L103.03 164.188L101.981 166.515C101.735 167.07 101.195 167.44 100.578 167.471C99.5917 167.517 98.605 167.687 97.6492 167.965C97.0634 168.134 96.4313 167.965 96.015 167.517L94.2729 165.652L91.02 167.672L91.9142 170.077C92.13 170.647 92.0067 171.295 91.5904 171.742C90.9275 172.482 90.3417 173.283 89.8638 174.162C89.5709 174.702 89.0004 175.01 88.3992 174.995L85.84 174.917L84.9767 178.648L87.3046 179.697C87.8596 179.943 88.2296 180.483 88.2604 181.1C88.3067 182.086 88.4763 183.073 88.7383 184.029C88.9079 184.615 88.7384 185.247 88.2913 185.663L86.4258 187.405L88.4454 190.658L90.8504 189.748C91.4208 189.532 92.0529 189.656 92.5154 190.072C93.2554 190.735 94.0571 191.321 94.9358 191.799C95.4754 192.092 95.7992 192.662 95.7684 193.263L95.6913 195.823L99.4221 196.686L100.47 194.358C100.717 193.803 101.257 193.433 101.873 193.402C102.86 193.356 103.847 193.186 104.803 192.924C105.388 192.755 106.02 192.924 106.437 193.371L108.179 195.237L111.432 193.217L110.538 190.812C110.322 190.242 110.445 189.594 110.861 189.147C111.524 188.407 112.11 187.605 112.588 186.727C112.881 186.187 113.451 185.879 114.053 185.894L116.612 185.971L117.475 182.24L115.147 181.192C114.592 180.945 114.222 180.406 114.191 179.789C114.145 178.803 113.975 177.816 113.713 176.86C113.544 176.274 113.713 175.642 114.16 175.226L116.026 173.484L114.006 170.231L111.601 171.125C111.031 171.325 110.399 171.202 109.936 170.801ZM106.39 188.7C101.827 191.552 95.8146 190.149 92.9625 185.586C90.1104 181.022 91.5134 175.01 96.0767 172.158C100.64 169.306 106.653 170.709 109.505 175.272C112.341 179.851 110.954 185.848 106.39 188.7Z" fill="#48C080"/>
<path d="M95.7221 183.859C93.8258 180.822 94.7508 176.814 97.8033 174.917C100.856 173.021 104.849 173.946 106.745 176.999C108.641 180.036 107.716 184.044 104.664 185.94C101.627 187.837 97.6183 186.912 95.7221 183.859Z" fill="#48C080"/>
<path d="M217.807 99.0367C217.205 99.8075 216.712 100.64 216.311 101.534C216.065 102.074 215.54 102.444 214.939 102.475L212.426 102.598L211.871 106.313L214.23 107.161C214.785 107.362 215.186 107.87 215.263 108.456C215.386 109.428 215.618 110.368 215.972 111.278C216.188 111.833 216.065 112.465 215.664 112.912L213.983 114.762L216.219 117.783L218.5 116.72C219.04 116.473 219.672 116.535 220.15 116.905C220.921 117.506 221.753 117.999 222.648 118.4C223.187 118.647 223.557 119.171 223.588 119.772L223.711 122.285L227.427 122.84L228.275 120.481C228.475 119.926 228.984 119.525 229.57 119.448C230.541 119.325 231.481 119.094 232.391 118.739C232.946 118.523 233.578 118.647 234.025 119.048L235.875 120.743L238.897 118.508L237.833 116.226C237.586 115.687 237.648 115.055 238.018 114.577C238.619 113.806 239.113 112.973 239.513 112.079C239.76 111.54 240.284 111.17 240.885 111.139L243.398 111.015L243.953 107.3L241.595 106.452C241.04 106.252 240.639 105.743 240.562 105.157C240.438 104.186 240.207 103.245 239.853 102.336C239.637 101.781 239.76 101.149 240.161 100.702L241.857 98.8517L239.621 95.83L237.34 96.8938C236.8 97.1404 236.168 97.0788 235.69 96.7088C234.919 96.1075 234.087 95.6142 233.193 95.2133C232.653 94.9667 232.283 94.4425 232.252 93.8413L232.129 91.3283L228.413 90.7733L227.565 93.1321C227.365 93.6871 226.856 94.0879 226.27 94.165C225.299 94.2883 224.359 94.5196 223.449 94.8742C222.894 95.09 222.262 94.9667 221.815 94.5658L219.965 92.87L216.943 95.1054L218.007 97.3871C218.238 97.9267 218.177 98.5588 217.807 99.0367V99.0367ZM235.582 101.118C238.712 105.358 237.818 111.355 233.578 114.484C229.338 117.614 223.341 116.72 220.212 112.48C217.082 108.24 217.976 102.243 222.216 99.1138C226.471 95.9842 232.453 96.8783 235.582 101.118V101.118Z" fill="#177844"/>
<path d="M231.682 111.925C228.845 114.022 224.868 113.42 222.771 110.584C220.674 107.747 221.275 103.77 224.112 101.673C226.949 99.5763 230.926 100.178 233.023 103.014C235.12 105.835 234.518 109.828 231.682 111.925Z" fill="#177844"/>
<path d="M179.758 86.58C179.527 87.8288 179.45 89.0929 179.496 90.3571C179.527 91.1279 179.142 91.8679 178.463 92.2533L175.642 93.8721L177.199 98.4971L180.437 98.0808C181.208 97.9883 181.963 98.3275 182.395 98.9596C183.119 100.008 183.952 100.964 184.877 101.812C185.447 102.336 185.678 103.138 185.478 103.878L184.63 107.007L188.993 109.181L190.997 106.606C191.475 105.99 192.246 105.697 193.001 105.835C194.25 106.067 195.514 106.159 196.778 106.098C197.549 106.067 198.289 106.452 198.675 107.13L200.293 109.952L204.918 108.395L204.502 105.157C204.41 104.386 204.749 103.631 205.381 103.199C206.429 102.49 207.385 101.642 208.233 100.717C208.757 100.147 209.559 99.9154 210.299 100.116L213.444 100.964L215.617 96.5854L213.028 94.5813C212.411 94.1033 212.118 93.3325 212.257 92.5771C212.488 91.3283 212.58 90.0642 212.519 88.8C212.488 88.0292 212.889 87.2892 213.552 86.9038L216.373 85.285L214.816 80.66L211.578 81.0763C210.808 81.1688 210.052 80.8296 209.62 80.1975C208.911 79.1492 208.063 78.1933 207.138 77.3454C206.568 76.8213 206.337 76.0196 206.537 75.2796L207.385 72.1346L203.037 69.9608L201.033 72.5354C200.555 73.1521 199.785 73.445 199.029 73.3063C197.78 73.075 196.516 72.9825 195.252 73.0442C194.481 73.075 193.741 72.6896 193.356 72.0113L191.737 69.19L187.112 70.7471L187.528 73.9846C187.621 74.7554 187.282 75.5108 186.65 75.9425C185.601 76.6517 184.645 77.4996 183.797 78.4246C183.273 78.995 182.472 79.2263 181.732 79.0258L178.587 78.1779L176.413 82.5563L178.987 84.5604C179.62 85.0383 179.912 85.8092 179.758 86.58V86.58ZM201.542 78.4554C207.678 81.5079 210.175 88.9542 207.138 95.09C204.086 101.226 196.64 103.723 190.504 100.686C184.368 97.6338 181.87 90.1875 184.908 84.0517C187.96 77.9158 195.406 75.4183 201.542 78.4554V78.4554Z" fill="#48C080"/>
<path d="M203.423 93.2554C201.388 97.3408 196.424 99.0213 192.338 96.9863C188.253 94.9513 186.572 89.9871 188.607 85.9017C190.642 81.8162 195.607 80.1358 199.692 82.1708C203.793 84.1904 205.458 89.1546 203.423 93.2554V93.2554Z" fill="#48C080"/>
</g>
<defs>
<clipPath id="clip0_14_260">
<rect width="296" height="296" fill="white"/>
</clipPath>
</defs>
</svg>
